<?xml version="1.0" encoding="utf-8"?>
<!-- Generator: Adobe Illustrator 22.1.0, SVG Export Plug-In . SVG Version: 6.00 Build 0)  -->
<svg version="1.1" id="Layer_1" xmlns="http://www.w3.org/2000/svg" xmlns:xlink="http://www.w3.org/1999/xlink" x="0px" y="0px"
	 viewBox="0 0 284 93" style="enable-background:new 0 0 284 93;" xml:space="preserve">
<style type="text/css">
	.st0{fill:#003A70;}
	.st1{fill:#0BBF5E;}
	.st2{fill:#CCCBCB;}
</style>
<g>
	<g>
		<g>
			<g>
				<path class="st0" d="M20.5,23.2c3.5-3.4,9.3-3.8,15.8-1.6c2.3,0.8,4.8,1.9,7.2,3.3c4.1,2.4,8.4,5.6,12.3,9.6
					c3.8,3.9,6.9,8,9.2,12.1c1.4-2.5,2.5-4.9,3.3-7.3c-1.9-3.4-4.3-6.8-7.3-9.8c-3.1-3.2-6.6-5.7-10.1-7.7c-2.4-1.3-4.8-2.3-7.2-3.1
					c-8.8-2.7-17.5-1.5-23.2,4C15,28.1,13.6,36.4,15.8,45c0.7-2.1,1.7-4.1,2.8-6.2C16.6,32.4,17.1,26.6,20.5,23.2z"/>
				<path class="st0" d="M71,45.5c-0.7,2.5-1.7,5.1-3,7.6c2.5,7,2.2,13.3-1.4,16.9s-9.9,3.8-16.8,1.2c-2.1-0.8-4.3-1.8-6.5-3.1
					c-4.1-2.4-8.2-5.5-12-9.4c-3.9-4-7.1-8.3-9.4-12.5c-1.3,2.2-2.3,4.4-3.1,6.5c1.9,3.7,4.5,7.4,7.8,10.7c3.1,3.2,6.6,5.8,10.2,7.7
					c2.2,1.2,4.3,2.1,6.5,2.8c9,2.9,18,1.8,23.8-3.9C73,64.2,74.1,54.9,71,45.5z"/>
			</g>
			<g>
				<path class="st1" d="M19.9,69.6c-3.6-3.7-3.8-10-1.2-16.9c0.8-2.1,1.8-4.3,3.1-6.5c2.3-4,5.5-8.1,9.3-11.9
					c4-3.9,8.2-7.1,12.4-9.4c-2.5-1.4-4.9-2.5-7.2-3.3c-3.6,1.9-7,4.4-10.2,7.5c-3.1,3-5.5,6.3-7.5,9.7c-1.2,2-2.1,4.1-2.8,6.2
					c-3.3,9.3-2.2,18.7,3.6,24.6c5.7,5.8,14.7,7,23.8,4.2c-2.2-0.7-4.4-1.6-6.5-2.8C29.7,73.6,23.5,73.3,19.9,69.6z"/>
				<path class="st1" d="M66.7,23.1c-5.6-5.6-14.2-7-23.1-4.4c2.4,0.7,4.9,1.7,7.2,3.1c6.6-2.1,12.4-1.6,15.8,1.8s3.8,9.2,1.6,15.7
					c-0.8,2.3-1.9,4.8-3.3,7.3c-2.4,4.2-5.6,8.4-9.6,12.4c-3.9,3.8-8,6.9-12.1,9.2c2.2,1.3,4.4,2.3,6.5,3.1
					c3.6-1.9,7.1-4.4,10.3-7.6c3.3-3.3,6-6.9,7.9-10.6c1.3-2.5,2.3-5,3-7.6C73.4,37,72.1,28.6,66.7,23.1z"/>
			</g>
			<g>
				<g>
					<path class="st0" d="M39.8,53.7V53c1.5-0.2,1.8-0.4,1.5-1.3c-0.3-0.9-0.8-2.3-1.3-3.8h-5.2C34.3,49,33.9,50,33.6,51
						c-0.5,1.5-0.3,1.8,1.5,2v0.7h-5.3V53c1.5-0.2,1.9-0.4,2.7-2.5l5.1-12.9l0.8-0.2c1.5,4.2,3.2,8.9,4.7,13.1
						c0.8,2.1,1.1,2.3,2.7,2.5v0.7H39.8z M37.4,40.6L37.4,40.6c-0.8,2.1-1.6,4.2-2.4,6.2h4.5L37.4,40.6z"/>
				</g>
			</g>
		</g>
		<path class="st1" d="M52.1,37.4c1.8,0,2.4,0.3,3.4,1.1c0.9,0.7,1.6,1.9,1.6,3.5c0,3.2-1.2,5.3-3.6,5.7c-0.4,0-1.3,0.1-1.5,0.1
			h-1.8l-0.1,2.8c0,2.1,0.2,2.3,2.5,2.4v0.7h-6.8V53c2-0.2,2.2-0.4,2.2-2.4v-10c0-2.2-0.2-2.3-2.1-2.4v-0.7
			C45.9,37.4,52.1,37.4,52.1,37.4z M50.1,46.7c0.4,0.1,1.1,0,1.9,0c1.6,0,3.6-1.4,3.6-4.5c0-2.7-1.7-3.9-3.8-3.9
			c-0.7,0-1.2,0.1-1.4,0.3s-0.3,0.5-0.3,1.2V46.7z"/>
	</g>
	<rect x="85.4" y="14.1" class="st2" width="1.2" height="64.5"/>
	<g>
		<path class="st0" d="M108.8,46.9v-0.8c1.8-0.2,2.1-0.5,1.7-1.6s-1-2.7-1.6-4.5h-6.2c-0.5,1.3-0.9,2.5-1.3,3.8
			c-0.6,1.8-0.4,2.1,1.8,2.3v0.8h-6.4v-0.8c1.8-0.3,2.3-0.4,3.3-3l6.1-15.4l0.9-0.3c1.8,5,3.8,10.6,5.7,15.7c0.9,2.5,1.3,2.8,3.2,3
			v0.8H108.8z M105.9,31.2L105.9,31.2c-1,2.5-1.9,5.1-2.8,7.5h5.4L105.9,31.2z"/>
		<path class="st0" d="M132.9,32.3c-0.2-1.2-0.4-1.7-0.8-2.3c-0.5-0.8-1.1-1.1-3.3-1.1h-2.2c-0.9,0-0.9,0.1-0.9,0.9v7h3
			c2.7,0,2.8-0.3,3.2-2.1h0.8v5.6h-0.8c-0.4-2-0.5-2.3-3.2-2.3h-3v5.3c0,2.5,0.2,2.7,2.9,2.9V47h-8v-0.8c2.3-0.2,2.6-0.3,2.6-2.9
			V31.5c0-2.5-0.2-2.7-2.5-2.9v-0.8h12.9c0,1.1,0.1,2.9,0.3,4.3L132.9,32.3z"/>
		<path class="st0" d="M151.3,32.3c-0.2-1.2-0.4-1.7-0.8-2.3c-0.5-0.8-1.1-1.1-3.3-1.1H145c-0.9,0-0.9,0.1-0.9,0.9v7h3
			c2.7,0,2.8-0.3,3.2-2.1h0.8v5.6h-0.8c-0.4-2-0.5-2.3-3.2-2.3h-3v5.3c0,2.5,0.2,2.7,2.9,2.9V47h-8v-0.8c2.3-0.2,2.6-0.3,2.6-2.9
			V31.5c0-2.5-0.2-2.7-2.5-2.9v-0.8H152c0,1.1,0.1,2.9,0.3,4.3L151.3,32.3z"/>
		<path class="st0" d="M157.2,46.9v-0.8c2.4-0.2,2.6-0.4,2.6-2.8V31.5c0-2.5-0.2-2.7-2.6-2.8v-0.8h7.8v0.8c-2.4,0.2-2.6,0.4-2.6,2.8
			v11.7c0,2.5,0.2,2.7,2.6,2.8v0.8h-7.8V46.9z"/>
		<path class="st0" d="M190,28.6c-1.6,0.1-2.3,0.5-2.5,1.8c-0.1,0.9-0.2,2.2-0.2,4.9v11.8h-0.9l-12.5-15.4h-0.1v7.4
			c0,2.7,0.1,4.1,0.2,5c0.1,1.5,0.8,1.8,2.8,2v0.8h-6.9v-0.8c1.7-0.1,2.4-0.5,2.6-1.9c0.1-0.9,0.2-2.3,0.2-5v-6.5
			c0-2.1-0.1-2.3-0.6-3c-0.6-0.7-1.2-1-2.6-1.1v-0.8h4.3L186,42.5h0.1v-7.2c0-2.7-0.1-4-0.2-4.9c-0.1-1.3-0.8-1.7-2.9-1.8v-0.8h6.9
			L190,28.6L190,28.6z"/>
		<path class="st0" d="M194.6,46.9v-0.8c2.4-0.2,2.6-0.4,2.6-2.8V31.5c0-2.5-0.2-2.7-2.6-2.8v-0.8h7.8v0.8c-2.4,0.2-2.6,0.4-2.6,2.8
			v11.7c0,2.5,0.2,2.7,2.6,2.8v0.8h-7.8V46.9z"/>
		<path class="st0" d="M235.6,46.9v-0.8c1.8-0.2,2.1-0.5,1.7-1.6c-0.4-1.1-1-2.7-1.6-4.5h-6.2c-0.5,1.3-0.9,2.5-1.3,3.8
			c-0.6,1.8-0.4,2.1,1.8,2.3v0.8h-6.4v-0.8c1.8-0.3,2.3-0.4,3.3-3l6.1-15.4l0.9-0.3c1.8,5,3.8,10.6,5.7,15.7c0.9,2.5,1.3,2.8,3.2,3
			v0.8H235.6z M232.8,31.2L232.8,31.2c-1,2.5-1.9,5.1-2.8,7.5h5.4L232.8,31.2z"/>
		<path class="st0" d="M262.1,28.6c-2,0.2-2.3,0.5-3.5,2.3c-1.3,2.1-2.3,3.8-3.7,6.4c-0.4,0.8-0.5,1.1-0.5,1.8v4
			c0,2.5,0.2,2.7,2.9,2.8v0.8H249v-0.8c2.6-0.2,2.9-0.3,2.9-2.8v-3.9c0-0.6-0.1-0.8-0.6-1.7c-1-1.8-2.1-3.7-3.7-6.5
			c-1.2-2-1.5-2.3-3.3-2.5v-0.8h7v0.8c-2.1,0.3-2,0.6-1.5,1.6c1.2,2.3,2.7,4.8,3.9,7c1.1-1.9,2.7-4.8,3.5-6.6
			c0.7-1.5,0.6-1.7-1.7-1.9v-0.8h6.5v0.8H262.1z"/>
		<path class="st0" d="M215.5,27.9c2.1,0,2.7,0.3,3.9,1.2c1.1,0.8,1.9,2.2,1.9,4.1c0,3.8-1.4,6.2-4.3,6.6c-0.4,0-1.5,0.1-1.8,0.1
			h-2.7l-0.1,3.4c0,2.5,0.3,2.6,2.9,2.8v0.8h-7.9v-0.8c2.3-0.2,2.6-0.4,2.6-2.8V31.5c0-2.6-0.2-2.7-2.4-2.8v-0.8
			C207.6,27.9,215.5,27.9,215.5,27.9z M212.6,38.6c0.4,0,1.5,0,2.5,0c1.9,0,4.2-1.6,4.2-5.3c0-3.2-2-4.5-4.4-4.5
			c-0.8,0-1.7,0.1-1.9,0.3c-0.2,0.2-0.3,0.6-0.3,1.4v8.1H212.6z"/>
		<path class="st0" d="M265.7,27.8c0.3,0,0.6,0.1,0.9,0.2c0.3,0.2,0.5,0.4,0.7,0.7c0.2,0.3,0.3,0.6,0.3,1c0,0.3-0.1,0.6-0.3,0.9
			c-0.2,0.3-0.4,0.5-0.7,0.7c-0.3,0.2-0.6,0.3-0.9,0.3s-0.6-0.1-0.9-0.3c-0.3-0.2-0.5-0.4-0.7-0.7c-0.2-0.3-0.3-0.6-0.3-0.9
			s0.1-0.7,0.3-1c0.2-0.3,0.4-0.5,0.7-0.7C265,27.9,265.4,27.8,265.7,27.8 M265.7,28.1c-0.3,0-0.5,0.1-0.8,0.2s-0.4,0.3-0.6,0.6
			c-0.1,0.3-0.2,0.5-0.2,0.8s0.1,0.5,0.2,0.8s0.3,0.4,0.6,0.6c0.3,0.1,0.5,0.2,0.8,0.2s0.5-0.1,0.8-0.2s0.4-0.3,0.6-0.6
			c0.1-0.3,0.2-0.5,0.2-0.8s-0.1-0.5-0.2-0.8s-0.3-0.4-0.6-0.6C266.2,28.2,265.9,28.1,265.7,28.1 M264.9,30.7v-2h0.7
			c0.2,0,0.4,0,0.5,0.1c0.1,0,0.2,0.1,0.2,0.2c0.1,0.1,0.1,0.2,0.1,0.3c0,0.1-0.1,0.3-0.2,0.4s-0.2,0.2-0.4,0.2
			c0.1,0,0.1,0.1,0.2,0.1c0.1,0.1,0.2,0.2,0.3,0.4l0.2,0.4h-0.4l-0.2-0.3c-0.1-0.2-0.2-0.4-0.3-0.5c-0.1,0-0.1-0.1-0.3-0.1h-0.2v0.8
			H264.9z M265.3,29.6h0.4c0.2,0,0.3,0,0.4-0.1s0.1-0.1,0.1-0.2s0-0.1,0-0.2l-0.1-0.1c-0.1,0-0.2,0-0.3,0h-0.4v0.6H265.3z"/>
	</g>
	<g>
		<path class="st1" d="M137.2,70.2h-2.3v-1.5c-0.5,0.5-1.6,1.7-3.7,1.7c-2.2,0-4-1.3-4-3.6c0-2.3,1.9-3.4,4.6-3.6l3.1-0.1v-0.5
			c0-1.8-1.2-2.6-2.9-2.6s-3.1,0.8-3.5,1l-0.7-1.6c0.9-0.5,2.4-1.2,4.4-1.2c1.9,0,3.1,0.5,3.8,1.3c0.8,0.8,1.2,1.8,1.2,3.8
			L137.2,70.2L137.2,70.2z M134.8,64.6l-2.7,0.2c-1.9,0.1-2.6,0.9-2.6,2s0.9,2,2.4,2s2.5-1,3-1.7L134.8,64.6L134.8,64.6z"/>
		<path class="st1" d="M147.7,69.5c-0.8,0.7-1.9,1-3.2,1c-2,0-3.6-0.8-4.5-2.1l1.1-1.4c0.9,1.1,2.4,1.7,3.4,1.7
			c1.1,0,2.2-0.4,2.2-1.7s-1.8-1.7-2.6-1.9c-0.8-0.3-1.1-0.3-1.6-0.6c-0.7-0.4-1.8-1.1-1.8-2.8c0-2.2,1.9-3.3,3.9-3.3
			c2.1,0,3.2,0.7,4,1.5l-1,1.4c-0.7-0.7-1.8-1.2-2.9-1.2c-1.1,0-1.9,0.5-1.9,1.4c0,1,1.1,1.4,2.3,1.7c0.6,0.2,1.1,0.4,1.6,0.6
			s1,0.5,1.3,0.8c0.4,0.4,0.9,1.1,0.9,2.2S148.5,68.8,147.7,69.5z"/>
		<path class="st1" d="M158.5,69.5c-0.8,0.7-1.9,1-3.2,1c-2,0-3.6-0.8-4.5-2.1l1.1-1.4c0.9,1.1,2.4,1.7,3.4,1.7
			c1.1,0,2.2-0.4,2.2-1.7s-1.8-1.7-2.6-1.9c-0.8-0.3-1.1-0.3-1.6-0.6c-0.7-0.4-1.8-1.1-1.8-2.8c0-2.2,1.9-3.3,3.9-3.3
			c2.1,0,3.2,0.7,4,1.5l-1,1.4c-0.7-0.7-1.8-1.2-2.9-1.2c-1.1,0-1.9,0.5-1.9,1.4c0,1,1.1,1.4,2.3,1.7c0.6,0.2,1.1,0.4,1.6,0.6
			s1,0.5,1.3,0.8c0.4,0.4,0.9,1.1,0.9,2.2S159.3,68.8,158.5,69.5z"/>
		<path class="st1" d="M168.4,70.5c-3.5,0-6.2-2.4-6.2-6s2.7-6.1,6.2-6.1s6.1,2.5,6.1,6.1S171.8,70.5,168.4,70.5z M168.4,60.3
			c-2.4,0-3.8,1.8-3.8,4.1s1.4,4.1,3.8,4.1c2.3,0,3.8-1.8,3.8-4.1C172.1,62.1,170.7,60.3,168.4,60.3z"/>
		<path class="st1" d="M187.6,68.7c-0.3,0.3-1.5,1.8-4.7,1.8c-3.1,0-5.9-2.4-5.9-6.1c0-3.7,2.9-6,6-6s4.4,1.5,4.5,1.7l-0.8,1.7
			c-0.4-0.4-1.4-1.4-3.5-1.4s-3.8,1.6-3.8,4s1.5,4.1,3.8,4.1s3.5-1.5,3.5-1.5L187.6,68.7z"/>
		<path class="st1" d="M191.7,56.2c-0.9,0-1.5-0.6-1.5-1.4s0.6-1.4,1.5-1.4s1.5,0.6,1.5,1.4S192.6,56.2,191.7,56.2z M192.9,70.2
			h-2.4V58.6h2.4V70.2z"/>
		<path class="st1" d="M206.2,70.2h-2.3v-1.5c-0.5,0.5-1.6,1.7-3.7,1.7c-2.2,0-4-1.3-4-3.6c0-2.3,1.9-3.4,4.6-3.6l3.1-0.1v-0.5
			c0-1.8-1.2-2.6-2.9-2.6s-3.1,0.8-3.5,1l-0.7-1.6c0.9-0.5,2.4-1.2,4.4-1.2c1.9,0,3.1,0.5,3.8,1.3c0.8,0.8,1.2,1.8,1.2,3.8
			L206.2,70.2L206.2,70.2z M203.9,64.6l-2.7,0.2c-1.9,0.1-2.6,0.9-2.6,2s0.9,2,2.4,2s2.5-1,3-1.7L203.9,64.6L203.9,64.6z"/>
		<path class="st1" d="M215.8,70.1c0,0-0.9,0.4-2.1,0.4c-1.2,0-2-0.5-2.5-1.2s-0.6-1.6-0.6-3.5v-5.3h-1.7v-1.9h1.7v-3.5h2.4v3.5h2.8
			v1.9H213v5.3c0,1,0,1.6,0.3,2.1c0.2,0.4,0.5,0.6,1.2,0.6s1.2-0.3,1.2-0.3L215.8,70.1z"/>
		<path class="st1" d="M219.9,56.2c-0.9,0-1.5-0.6-1.5-1.4s0.6-1.4,1.5-1.4s1.5,0.6,1.5,1.4S220.8,56.2,219.9,56.2z M221.1,70.2
			h-2.4V58.6h2.4V70.2z"/>
		<path class="st1" d="M230.8,70.5c-3.5,0-6.2-2.4-6.2-6s2.7-6.1,6.2-6.1s6.1,2.5,6.1,6.1C236.9,68.1,234.2,70.5,230.8,70.5z
			 M230.8,60.3c-2.4,0-3.8,1.8-3.8,4.1s1.4,4.1,3.8,4.1c2.3,0,3.8-1.8,3.8-4.1C234.5,62.1,233.1,60.3,230.8,60.3z"/>
		<path class="st1" d="M250.4,70.2H248v-6.5c0-2-0.3-3.4-2.4-3.4c-2.2,0-3,1.8-3,4.1v5.9h-2.4V58.6h2.4v1.8h0.1
			c0.6-1.2,1.9-2.1,3.6-2.1c3.3,0,4.2,2.2,4.2,5v6.9H250.4z"/>
		<path class="st1" d="M261.1,69.5c-0.8,0.7-1.9,1-3.2,1c-2,0-3.6-0.8-4.5-2.1l1.1-1.4c0.9,1.1,2.4,1.7,3.4,1.7
			c1.1,0,2.2-0.4,2.2-1.7s-1.8-1.7-2.6-1.9c-0.8-0.3-1.1-0.3-1.6-0.6c-0.7-0.4-1.8-1.1-1.8-2.8c0-2.2,1.9-3.3,3.9-3.3
			c2.1,0,3.2,0.7,4,1.5l-1,1.4c-0.7-0.7-1.8-1.2-2.9-1.2s-1.9,0.5-1.9,1.4c0,1,1.1,1.4,2.3,1.7c0.6,0.2,1.1,0.4,1.6,0.6
			s1,0.5,1.3,0.8c0.4,0.4,0.9,1.1,0.9,2.2S261.8,68.8,261.1,69.5z"/>
	</g>
	<g>
		<path class="st0" d="M102.8,58.1c0,0-0.5-0.2-1.1-0.2c-1.2,0-1.4,0.9-1.4,2v1h2.2v1.5h-2.2v7.8h-1.9v-7.8h-1.3v-1.5h1.3V60
			c0-1.2,0.2-2,0.6-2.5s1.2-1,2.2-1s1.6,0.2,1.6,0.2L102.8,58.1z"/>
		<path class="st0" d="M107.7,70.4c-2.8,0-4.9-1.9-4.9-4.8s2.2-4.9,4.9-4.9c2.8,0,4.9,2,4.9,4.9S110.5,70.4,107.7,70.4z M107.7,62.3
			c-1.9,0-3,1.4-3,3.3c0,1.8,1.2,3.3,3,3.3c1.9,0,3-1.4,3-3.3C110.7,63.7,109.6,62.3,107.7,62.3z"/>
		<path class="st0" d="M119.7,62.6L119.7,62.6c-0.3-0.1-0.6-0.2-1.1-0.2c-0.8,0-1.3,0.5-1.5,0.8s-0.6,1-0.6,2.3v4.6h-1.9v-9.3h1.9
			v1.4h0.1c0.4-1.1,1.3-1.6,2.3-1.6c0.6,0,1,0.2,1,0.2L119.7,62.6z"/>
	</g>
</g>
</svg>
