<svg xmlns="http://www.w3.org/2000/svg" viewBox="0 0 250 250"><title>charge</title><rect x="59.42" y="149.42" width="23.98" height="3.11" style="fill:#0bbf5e"/><rect x="90.76" y="149.42" width="23.98" height="3.11" style="fill:#0bbf5e"/><text transform="translate(57.62 95.11)" style="font-size:20.6004695892334px;fill:#003a70;font-family:Muli-Light, Muli"><tspan style="letter-spacing:-0.01998115101051527em">C</tspan><tspan x="13.68" y="0">ARD</tspan></text><path d="M184.18,114.45a35,35,0,1,0,35,35A35,35,0,0,0,184.18,114.45Zm0,66.9a31.92,31.92,0,1,1,31.92-31.91A32,32,0,0,1,184.18,181.35Z" style="fill:#0bbf5e"/><path d="M168.54,148.35a1.51,1.51,0,0,0-1.08-.45,1.54,1.54,0,0,0-1.54,1.54,1.51,1.51,0,0,0,.45,1.08l12.55,12.55a1.51,1.51,0,0,0,1.08.45h.07a1.55,1.55,0,0,0,1.11-.55l20.91-25.08a1.54,1.54,0,1,0-2.36-2l-19.83,23.8Z" style="fill:#0bbf5e"/><path d="M150.7,168.84H43.4V65.46H185.75V112l1.31,0c.59,0,1.19,0,1.78,0V62.37H40.32V171.93h112Q151.44,170.43,150.7,168.84Z" style="fill:#003a70"/></svg>