<svg xmlns="http://www.w3.org/2000/svg" viewBox="0 0 250 250"><title>client-signatures</title><path d="M194.2,178.53a1,1,0,0,0,1-1V102a1,1,0,0,0-1-1H181.43l.77-2.69a9.7,9.7,0,0,0-1.34-8.19l-1-1.45L185,83.49a1,1,0,0,0,.28-.68,1,1,0,0,0-.19-.58L184,80.77l8.2-8.2a1,1,0,0,0,0-1.37l-5.55-5.54a1,1,0,0,0-1.36,0l-8.2,8.2-1.47-1.1a1,1,0,0,0-1.26.09L146.25,101H45.8a1,1,0,0,0-1,1v75.61a1,1,0,0,0,1,1ZM180,92.61a7.86,7.86,0,0,1-.81,7.48l-.63.9H167.54L178.82,89.7Zm6-24.91,4.18,4.18-7.69,7.69-4.18-4.17Zm-10.92,7.19L183,82.81l-55.63,55.63-7.92-7.91ZM126,139.8,112.6,153.2a5.11,5.11,0,0,1-7.23,0l-.69-.69a5.12,5.12,0,0,1,0-7.22l13.4-13.4ZM46.76,102.92h97.56l-41,41a7.08,7.08,0,0,0-1.21,8.34l.76,1.39-4.2,4.2H62.2a1,1,0,0,0,0,1.93H99.07a.93.93,0,0,0,.71-.32l.09-.09,4.36-4.35,1.39.75a7,7,0,0,0,8.34-1.21l51.65-51.64h11L162.46,117a1,1,0,0,0,0,1.37,1,1,0,0,0,.69.28,1,1,0,0,0,.68-.28l15.47-15.48h13.93V176.6H46.76Z" style="fill:#003a70"/><path d="M165.93,159.78a1,1,0,0,0,0-1.93h-22.5a1,1,0,0,0,0,1.93Z" style="fill:#0bbf5e"/><path d="M179.05,159.78a1,1,0,0,0,0-1.93h-1.88a1,1,0,0,0,0,1.93Z" style="fill:#0bbf5e"/><path d="M99.07,118.54a1,1,0,0,0,.68-1.65,1,1,0,0,0-.68-.28H62.2a1,1,0,0,0,0,1.93Z" style="fill:#0bbf5e"/><path d="M99.07,132a1,1,0,0,0,0-1.94H62.2a1,1,0,0,0,0,1.94Z" style="fill:#0bbf5e"/></svg>