<svg xmlns="http://www.w3.org/2000/svg" viewBox="0 0 250 250"><title>payment-integration</title><path d="M201.7,136.12V109.93a8.09,8.09,0,0,0-8.08-8.08H171.73" style="fill:none;stroke:#003a70;stroke-miterlimit:10;stroke-width:1.96633282247015px"/><path d="M184.27,173.15a1.7,1.7,0,0,1-1.46-.85L172,153.69l-10.35,8.86a1.71,1.71,0,0,1-1.81.26,1.73,1.73,0,0,1-1-1.55V103.55a1.7,1.7,0,0,1,2.91-1.2l40.73,40.73a1.69,1.69,0,0,1,.36,1.85,1.67,1.67,0,0,1-1.56,1h-14l10.4,17.82a1.7,1.7,0,0,1-.62,2.32l-11.89,6.8a1.66,1.66,0,0,1-.84.23" style="fill:none;stroke:#003a70;stroke-miterlimit:10;stroke-width:1.96633282247015px"/><line x1="171.73" y1="94.18" x2="182.52" y2="83.39" style="fill:#0bbf5e;stroke:#0bbf5e;stroke-miterlimit:10;stroke-width:1.96633282247015px"/><line x1="160.51" y1="74.83" x2="160.51" y2="89.02" style="fill:#0bbf5e;stroke:#0bbf5e;stroke-miterlimit:10;stroke-width:1.96633282247015px"/><line x1="138.58" y1="84.31" x2="148.84" y2="94.18" style="fill:#0bbf5e;stroke:#0bbf5e;stroke-miterlimit:10;stroke-width:1.96633282247015px"/><path d="M152.49,101.85H47a8.09,8.09,0,0,0-8.08,8.08v33.66A8.09,8.09,0,0,0,47,151.67h107.8" style="fill:none;stroke:#003a70;stroke-miterlimit:10;stroke-width:1.96633282247015px"/><path d="M51.15,120.51H56.6a10.7,10.7,0,0,1,2.16.21,4.85,4.85,0,0,1,1.77.72,3.45,3.45,0,0,1,1.2,1.36,4.68,4.68,0,0,1,.45,2.17,5.11,5.11,0,0,1-.41,2.16,3.64,3.64,0,0,1-1.14,1.39,4.66,4.66,0,0,1-1.73.73,9.73,9.73,0,0,1-2.15.22H54.39v5.72H51.15Zm3.24,6.22h2.15a3.86,3.86,0,0,0,.84-.08,2.22,2.22,0,0,0,.73-.28,1.47,1.47,0,0,0,.51-.54,1.61,1.61,0,0,0,.2-.86,1.42,1.42,0,0,0-.26-.9,1.64,1.64,0,0,0-.66-.53,3.13,3.13,0,0,0-.9-.24c-.33,0-.65,0-1,0H54.39Z" style="fill:#0bbf5e"/><path d="M67.51,120.51h2.67l6.39,14.68H72.92l-1.26-3.11H66l-1.22,3.11H61.16Zm1.24,4.27L67,129.35h3.59Z" style="fill:#0bbf5e"/><path d="M80.11,128.93l-5.51-8.42h4l3.11,5.5,3.3-5.5h3.83l-5.51,8.42v6.26H80.11Z" style="fill:#0bbf5e"/><path d="M96.08,120.51h4.39l6.24,10.2h0v-10.2H110v14.68h-4.23l-6.41-10.45h0v10.45H96.08Z" style="fill:#0bbf5e"/><path d="M112.18,127.85a8.17,8.17,0,0,1,.6-3.19,7,7,0,0,1,1.64-2.44,7.3,7.3,0,0,1,2.51-1.54,9.57,9.57,0,0,1,6.34,0,7.2,7.2,0,0,1,2.51,1.54,6.93,6.93,0,0,1,1.65,2.44,8.95,8.95,0,0,1,0,6.39,6.89,6.89,0,0,1-1.65,2.43,7.23,7.23,0,0,1-2.51,1.55,9.75,9.75,0,0,1-6.34,0,7.32,7.32,0,0,1-2.51-1.55,7,7,0,0,1-1.64-2.43A8.22,8.22,0,0,1,112.18,127.85Zm3.36,0a5.49,5.49,0,0,0,.32,1.9,4.3,4.3,0,0,0,2.37,2.48,4.87,4.87,0,0,0,1.87.35,4.92,4.92,0,0,0,1.88-.35,4.24,4.24,0,0,0,2.36-2.48,5.74,5.74,0,0,0,0-3.78,4.29,4.29,0,0,0-.92-1.51,4.14,4.14,0,0,0-1.44-1,4.74,4.74,0,0,0-1.88-.35,4.69,4.69,0,0,0-1.87.35,4.14,4.14,0,0,0-1.44,1,4.31,4.31,0,0,0-.93,1.51A5.5,5.5,0,0,0,115.54,127.85Z" style="fill:#0bbf5e"/><path d="M128.69,120.51h3.52l2.34,9.42h0l3.07-9.42h3l3.05,9.67h0l2.46-9.67h3.28l-4.29,14.68h-2.88L139.09,125h0l-3.23,10.16H133Z" style="fill:#0bbf5e"/></svg>