<svg xmlns="http://www.w3.org/2000/svg" viewBox="0 0 250 250"><title>quick-bill</title><path d="M158.55,146.23a19.62,19.62,0,1,0,19.62,19.61A19.64,19.64,0,0,0,158.55,146.23Zm0,37.5a17.89,17.89,0,1,1,17.9-17.89A17.91,17.91,0,0,1,158.55,183.73Z" style="fill:#0bbf5e"/><path d="M149.78,165.23a.86.86,0,0,0-1.21,0,.85.85,0,0,0-.26.61.83.83,0,0,0,.26.61l7,7a.82.82,0,0,0,.61.25h0a.85.85,0,0,0,.63-.31l11.72-14.06a.87.87,0,0,0-.11-1.21.85.85,0,0,0-1.21.11L156.15,171.6Z" style="fill:#0bbf5e"/><path d="M159.41,137.71v-75a.86.86,0,0,0-.86-.86H74.16a.86.86,0,0,0-.86.86V179.91a.86.86,0,0,0,.43.75.9.9,0,0,0,.87,0l11.23-6.74,8.91,6.69a.86.86,0,0,0,1,.05l11.22-6.74,8.92,6.69a.9.9,0,0,0,1,.05l11.72-7a.81.81,0,0,0,.39-.53.83.83,0,0,0-.1-.65.85.85,0,0,0-.53-.39.83.83,0,0,0-.65.1l-11.22,6.73-8.92-6.68a.85.85,0,0,0-.95-.05l-11.23,6.73-8.91-6.68a.85.85,0,0,0-1-.05L75,178.39V63.55h82.67v74.16a.86.86,0,0,0,1.72,0Z" style="fill:#003a70"/><path d="M97.6,84.65a.86.86,0,1,0,0-1.72H85.88a.86.86,0,1,0,0,1.72Z" style="fill:#003a70"/><path d="M130.42,94.65a.86.86,0,0,0,0,1.72h11.72a.86.86,0,0,0,0-1.72Z" style="fill:#003a70"/><path d="M130.42,106.37a.87.87,0,0,0,0,1.73h11.72a.87.87,0,0,0,0-1.73Z" style="fill:#003a70"/><path d="M130.42,118.1a.86.86,0,0,0,0,1.72h11.72a.86.86,0,1,0,0-1.72Z" style="fill:#003a70"/><path d="M130.42,129.82a.86.86,0,0,0,0,1.72h11.72a.86.86,0,0,0,0-1.72Z" style="fill:#003a70"/><path d="M130.42,141.54a.86.86,0,0,0,0,1.72h11.72a.86.86,0,1,0,0-1.72Z" style="fill:#003a70"/><path d="M118.7,96.37a.86.86,0,0,0,0-1.72H85.88a.86.86,0,1,0,0,1.72Z" style="fill:#003a70"/><path d="M118.7,108.1a.87.87,0,0,0,0-1.73H85.88a.87.87,0,0,0,0,1.73Z" style="fill:#003a70"/><path d="M118.7,119.82a.86.86,0,0,0,0-1.72H85.88a.86.86,0,1,0,0,1.72Z" style="fill:#003a70"/><path d="M118.7,131.54a.86.86,0,1,0,0-1.72H85.88a.86.86,0,1,0,0,1.72Z" style="fill:#003a70"/><path d="M118.7,143.26a.86.86,0,0,0,0-1.72H85.88a.86.86,0,1,0,0,1.72Z" style="fill:#003a70"/></svg>