<svg xmlns="http://www.w3.org/2000/svg" viewBox="0 0 250 250"><title>refunds</title><path d="M105.3,137c.64,6.49,9.27,11.63,19.85,11.63,11,0,19.88-5.57,19.88-12.42,0-10.12-16.38-11.82-19.84-12.42s-19.89-2.3-19.89-12.43c0-6.85,8.91-12.41,19.89-12.41,10.58,0,19.2,5.15,19.84,11.62" style="fill:none;stroke:#0bbf5e;stroke-linecap:round;stroke-linejoin:round;stroke-width:1.7196261482338px"/><line x1="125.17" y1="89.05" x2="125.17" y2="158.57" style="fill:none;stroke:#0bbf5e;stroke-linecap:round;stroke-linejoin:round;stroke-width:1.7196261482338px"/><path d="M172.54,83.88a61.18,61.18,0,1,1-17.25-14.49" style="fill:none;stroke:#003a70;stroke-linecap:round;stroke-linejoin:round;stroke-width:1.7196261482338px"/><polygon points="149 72.05 148.67 70.8 154.83 69.2 152.78 63.17 154 62.76 156.49 70.09 149 72.05" style="fill:#003a70"/></svg>