<svg xmlns="http://www.w3.org/2000/svg" viewBox="0 0 250 250"><title>schedules-payments-01</title><path d="M171,134.38a24.82,24.82,0,1,0,24.81,24.82A24.85,24.85,0,0,0,171,134.38Zm0,47.38a22.56,22.56,0,1,1,22.56-22.56A22.59,22.59,0,0,1,171,181.76Z" style="fill:#00843d"/><path d="M171,160.32h12.92a1.13,1.13,0,1,0,0-2.25H172.15V146.28a1.13,1.13,0,0,0-2.26,0V159.2A1.13,1.13,0,0,0,171,160.32Z" style="fill:#00843d"/><path d="M167.84,106.39H88.06v60.39h41V128h38.76Zm-60.4,58.14H90.32V147.4h17.12Zm0-19.38H90.32V128h17.12Zm0-19.38H90.32V108.64h17.12Zm19.38,38.76H109.7V147.4h17.12Zm0-19.38H109.7V128h17.12Zm0-19.38H109.7V108.64h17.12Zm19.38,0H129.08V108.64H146.2Zm19.39,0H148.46V108.64h17.13Z" style="fill:#003a70"/><path d="M181.79,123.72a1.13,1.13,0,0,0,1.12-1.13V70.91a1.13,1.13,0,0,0-1.12-1.13H170V62.29a1.12,1.12,0,0,0-1.12-1.12H153.79a1.12,1.12,0,0,0-1.12,1.12v7.49H103.24V62.29a1.13,1.13,0,0,0-1.13-1.12H87a1.12,1.12,0,0,0-1.13,1.12v7.49H74.12A1.13,1.13,0,0,0,73,70.91V180.73a1.13,1.13,0,0,0,1.13,1.13H143a1.13,1.13,0,1,0,0-2.26H75.24v-86H180.66v29A1.13,1.13,0,0,0,181.79,123.72Zm-26.87-60.3h12.82v15H154.92Zm-66.76,0H101v15H88.16ZM75.24,91.31V72H85.91v7.49A1.13,1.13,0,0,0,87,80.65h15.07a1.14,1.14,0,0,0,1.13-1.13V72h49.43v7.49a1.13,1.13,0,0,0,1.12,1.13h15.08A1.13,1.13,0,0,0,170,79.52V72h10.67V91.31Z" style="fill:#003a70"/></svg>