<?xml version="1.0" encoding="utf-8"?>
<!-- Generator: Adobe Illustrator 22.1.0, SVG Export Plug-In . SVG Version: 6.00 Build 0)  -->
<svg version="1.1" xmlns="http://www.w3.org/2000/svg" xmlns:xlink="http://www.w3.org/1999/xlink" x="0px" y="0px"
	 viewBox="0 0 111 111" style="enable-background:new 0 0 111 111;" xml:space="preserve">
<style type="text/css">
	.st0{fill:#FFFFFF;}
</style>
<g id="Layer_1">
	<path class="st0" d="M10.2,54.8c0-25,20.3-45.3,45.3-45.3c25,0,45.3,20.3,45.3,45.3c0,25-20.3,45.3-45.3,45.3
		C30.5,100.1,10.2,79.8,10.2,54.8 M55.5,98.8c24.3,0,44.1-19.7,44.1-44.1c0-24.3-19.7-44.1-44.1-44.1c-24.3,0-44.1,19.7-44.1,44.1
		C11.4,79.1,31.2,98.8,55.5,98.8 M55.5,108.8c-29.8,0-54-24.2-54-54c0-29.8,24.2-54,54-54c29.8,0,54,24.2,54,54
		C109.5,84.5,85.3,108.8,55.5,108.8z M55.5,6.5C28.9,6.5,7.3,28.2,7.3,54.8c0,26.6,21.6,48.2,48.2,48.2c26.6,0,48.2-21.6,48.2-48.2
		C103.7,28.2,82.1,6.5,55.5,6.5z M30.4,57c-0.3,0.4-0.4,0.8-0.4,2.5c0,1.7,0.1,2.1,0.4,2.5c0.2,0.3,0.6,0.5,1.1,0.5s0.9-0.2,1.1-0.5
		c0.3-0.4,0.4-0.8,0.4-2.5c0-1.7-0.1-2.1-0.4-2.5c-0.2-0.3-0.6-0.5-1.1-0.5S30.7,56.7,30.4,57z M46.6,57c-0.3,0.4-0.4,0.8-0.4,2.5
		c0,1.7,0.1,2.1,0.4,2.5c0.2,0.3,0.6,0.5,1.1,0.5s0.9-0.2,1.1-0.5c0.3-0.4,0.4-0.8,0.4-2.5c0-1.7-0.1-2.1-0.4-2.5
		c-0.2-0.3-0.6-0.5-1.1-0.5S46.8,56.7,46.6,57z M39.7,81.9c-0.2-0.2-0.5-0.3-0.8-0.3c-0.4,0-0.7,0.1-0.9,0.3
		c-0.3,0.2-0.3,0.4-0.3,1.3s0.1,1.1,0.3,1.3c0.2,0.2,0.5,0.3,0.9,0.3c0.4,0,0.7-0.1,0.8-0.3c0.3-0.2,0.3-0.4,0.3-1.3
		S40,82.1,39.7,81.9z M63.7,81.7h-1.2v1.3h1.2c0.6,0,1-0.3,1-0.6C64.7,81.9,64.3,81.7,63.7,81.7z M55.7,56.6h-1.6V59h1.6
		c0.8,0,1.3-0.5,1.3-1.2C57,57.1,56.5,56.6,55.7,56.6z M56.3,81.9c-0.2-0.2-0.5-0.3-0.8-0.3c-0.4,0-0.7,0.1-0.9,0.3
		c-0.3,0.2-0.3,0.4-0.3,1.3s0.1,1.1,0.3,1.3c0.2,0.2,0.5,0.3,0.9,0.3c0.4,0,0.7-0.1,0.8-0.3c0.3-0.2,0.3-0.4,0.3-1.3
		S56.5,82.1,56.3,81.9z M66.2,56.6h-1.6V59h1.6c0.8,0,1.3-0.5,1.3-1.2C67.4,57.1,66.9,56.6,66.2,56.6z M50.9,43.6
		c1.9,0,2.3-2.6,2.3-4.9c0-0.7,0-2.4-0.3-3.4c-0.2-1-0.8-1.9-1.9-1.9c-0.5,0-1.2,0.3-1.6,1c-0.6,1-0.7,3.1-0.7,4.6
		c0,0.9,0,1.7,0.2,2.6C49.1,42.8,49.8,43.6,50.9,43.6z M61.9,43.6c1.9,0,2.3-2.6,2.3-4.9c0-0.7,0-2.4-0.3-3.4
		c-0.2-1-0.8-1.9-1.9-1.9c-0.5,0-1.2,0.3-1.6,1c-0.6,1-0.7,3.1-0.7,4.6c0,0.9,0,1.7,0.2,2.6C60.1,42.9,60.8,43.6,61.9,43.6z
		 M73,43.6c1.9,0,2.3-2.6,2.3-4.9c0-0.7,0-2.4-0.3-3.4c-0.2-1-0.8-1.9-1.9-1.9c-0.5,0-1.2,0.3-1.6,1c-0.6,1-0.7,3.1-0.7,4.6
		c0,0.9,0,1.7,0.2,2.6C71.2,42.9,71.9,43.6,73,43.6z M71.7,26.5c0.8,0,1.4,0.6,1.4,1.4c0,0.8-0.6,1.4-1.4,1.4
		c-0.8,0-1.4-0.6-1.4-1.4C70.3,27.1,70.9,26.5,71.7,26.5z M48,26.8h1.1V23H48v-2.5h4.9v1.7c0.1-0.1,0.2-0.2,0.2-0.2
		c0.9-1,1.9-1.4,3.2-1.4c1.9,0,3.4,0.8,3.4,2.8v3.3h1c-0.2-0.5-0.3-1.1-0.4-1.7c0,0,0,0,0,0v0c0,0,0,0,0,0c0-3.1,2.7-4.4,5.4-4.4
		c0,0,4.3-0.3,4.7,3.6l-3.3,0.4c0-0.9-0.2-1.9-1.4-1.9c-1.4,0-1.5,1.2-1.5,2.3v0v0c0,1.1,0.1,2.3,1.5,2.3c0.7,0,1.4-0.4,1.4-1.3
		l0.1,0l3.2,0l0,0.3c-0.5,2.7-3,3.1-4.7,3.1c-2.2,0-4.3-0.8-5.1-2.7v2.4h-6v-2.5h1.1v-2.6c0-0.8-0.6-1.1-1.3-1.1
		c-0.9,0-1.6,0.7-1.6,1.6v2.1h1.2v2.5H48V26.8z M39.7,26.8h1.5v-6.2h-1.5v-2.7h7.9v2.7h-1.5v6.2h1.5v2.5h-7.9V26.8z M39.5,38.7
		c-1.3,0-1.7,0.6-1.9,1l-4-0.5l0.9-8.6h11.8l-0.2,1.6c1.2-1.3,2.8-2,5.1-2c2.7,0,4.3,1.2,5.3,2.8c1.2-1.7,3-2.8,5.7-2.7
		c2.7,0,4.4,1.2,5.4,2.8c0,0,0-0.1,0.1-0.1c1.2-1.7,3-2.7,5.5-2.7c0,0,0.1,0,0.1,0c5.4,0.1,6.7,4.8,6.7,8.1c0,4-1.8,8.5-7.1,8.5
		c-2.3,0-4.2-1-5.4-2.9c0,0,0,0,0,0c-1.1,1.7-2.9,2.9-5.6,2.9c-2.3,0-4.2-1-5.4-2.8c-1.1,1.6-2.9,2.8-5.6,2.8c-2.1,0-4-0.9-5.2-2.5
		c-0.1,0.2-0.3,0.4-0.5,0.5c-1.7,1.8-4.2,1.9-5.5,1.9c-0.9,0-3.5,0-5.3-1.8c-1-1.1-1.2-2.2-1.5-3.4l4.7-0.5c0,0.4,0,0.8,0.1,1.2
		c0.3,0.9,1,1.3,2,1.3c1.7,0,2.4-1.2,2.4-2.5C41.9,39.7,41.1,38.7,39.5,38.7z M20.3,50l70.3,0v0.3H20.3V50z M84,62.4V64h-5.8v-8.9
		H80v7.3H84z M76.9,59.5c0,1.5,0,2.6-0.9,3.5c-0.6,0.6-1.4,1-2.4,1c-1,0-1.8-0.3-2.4-1c-0.9-0.9-0.9-2-0.9-3.5c0-1.5,0-2.6,0.9-3.5
		c0.6-0.6,1.4-1,2.4-1c1,0,1.8,0.3,2.4,1C76.9,56.9,76.9,58,76.9,59.5z M69.5,64h-2l-1.7-3.5h-1.2V64h-1.7v-8.9h3.5
		c1.8,0,2.9,1.2,2.9,2.7c0,1.2-0.8,2-1.6,2.3L69.5,64z M59.1,64h-2l-1.7-3.5h-1.2V64h-1.7v-8.9h3.5c1.8,0,2.9,1.2,2.9,2.7
		c0,1.2-0.8,2-1.6,2.3L59.1,64z M51,59.5c0,1.5,0,2.6-0.9,3.5c-0.6,0.6-1.4,1-2.4,1c-1,0-1.8-0.3-2.4-1c-0.9-0.9-0.9-2-0.9-3.5
		c0-1.5,0-2.6,0.9-3.5c0.6-0.6,1.4-1,2.4-1c1,0,1.8,0.3,2.4,1C51,56.9,51,58,51,59.5z M43,55.1V64h-1.5L38,58.5V64h-1.7v-8.9h1.5
		l3.5,5.4v-5.4H43z M34.8,59.5c0,1.5,0,2.6-0.9,3.5c-0.6,0.6-1.4,1-2.4,1c-1,0-1.8-0.3-2.4-1c-0.9-0.9-0.9-2-0.9-3.5
		c0-1.5,0-2.6,0.9-3.5c0.6-0.6,1.4-1,2.4-1c1,0,1.8,0.3,2.4,1C34.8,56.9,34.8,58,34.8,59.5z M22.1,60.2V64h-1.7v-8.9h1.7v3.6h3v-3.6
		h1.7V64h-1.7v-3.7H22.1z M25.6,77l1-0.8c0.3,0.3,0.9,0.3,1.5,0.3c0.6,0,0.9-0.2,0.9-0.4c0-0.1,0-0.2-0.1-0.3
		c-0.1-0.1-0.2-0.1-0.4-0.1l-0.8-0.1c-0.6-0.1-1-0.2-1.3-0.4c-0.3-0.2-0.4-0.6-0.4-1c0-0.9,0.9-1.6,2.4-1.6c0.9,0,1.6,0.2,2.2,0.6
		l-1,0.8c-0.4-0.3-1-0.3-1.2-0.3c-0.6,0-0.8,0.2-0.8,0.5c0,0.1,0,0.2,0.1,0.2c0.1,0.1,0.2,0.1,0.4,0.1l0.8,0.1
		c0.6,0.1,1,0.2,1.3,0.4c0.3,0.3,0.5,0.6,0.5,1.1c0,1-1.1,1.5-2.5,1.5C27.1,77.7,26.2,77.5,25.6,77z M33.1,85.6h-1.3v-2h-2.3v2h-1.3
		v-4.7h1.3v1.9h2.3v-1.9h1.3V85.6z M36.1,74.6v1.1h-2.4v0.9h2.8v1.1h-4.4v-4.9h4.4v1.1h-2.8v0.8H36.1z M40.7,85.1
		c-0.5,0.3-1,0.5-1.8,0.5c-0.8,0-1.4-0.2-1.8-0.5c-0.7-0.5-0.7-1.1-0.7-1.9c0-0.8,0-1.4,0.7-1.9c0.5-0.3,1.1-0.5,1.8-0.5
		c0.8,0,1.3,0.2,1.8,0.5c0.7,0.5,0.7,1.1,0.7,1.9C41.3,84,41.4,84.6,40.7,85.1z M40.8,77.6h-1.2l-2.2-4.9h1.7l1.1,2.7l1.1-2.7H43
		L40.8,77.6z M48.1,74.6v1.1h-2.4v0.9h2.8v1.1h-4.4v-4.9h4.4v1.1h-2.8v0.8H48.1z M49.7,85.6h-1.2l-2.7-2.9v2.9h-1.3v-4.7h1.2
		l2.7,2.9v-2.9h1.3V85.6z M51.8,77.6h-1.6v-4.9h1.4l2.1,2.5v-2.5h1.6v4.9h-1.4l-2.1-2.5V77.6z M57.3,85.1c-0.5,0.3-1,0.5-1.8,0.5
		c-0.8,0-1.4-0.2-1.8-0.5C52.9,84.6,53,84,53,83.2c0-0.8,0-1.4,0.7-1.9c0.5-0.3,1.1-0.5,1.8-0.5c0.8,0,1.3,0.2,1.8,0.5
		c0.7,0.5,0.7,1.1,0.7,1.9C57.9,84,57.9,84.6,57.3,85.1z M59.8,76.1h-3v-1.1h3V76.1z M61,73.8v-1.1h4.8v1.1h-1.6v3.8h-1.6v-3.8H61z
		 M64.7,85.6l-1.3-1.9h-0.9v1.9h-1.3v-4.7h2.6c1.4,0,2.2,0.7,2.2,1.5c0,0.7-0.6,1.1-1.2,1.2l1.5,2H64.7z M68.8,77.6h-1.6v-4.9h1.6
		V77.6z M73.7,81.7h-3.1v1.1h2.7v0.8h-2.7v1.2h3.1v0.8h-4.4v-4.7h4.4V81.7z M76.7,77.6h-1.6v-2.3l-0.9,1.2h-1l-0.9-1.2v2.3h-1.6
		v-4.9h1.6l1.5,2.2l1.5-2.2h1.6V77.6z M81.3,81.7h-3.1v1.1h2.7v0.8h-2.7v1.2h3.1v0.8h-4.4v-4.7h4.4V81.7z M82.9,73.8h-2.8v0.8h2.4
		v1.1h-2.4v0.9h2.8v1.1h-4.4v-4.9h4.4V73.8z M90.5,68.6H20.2v-0.3l70.3,0V68.6z M85.1,64v-8.9h1.7v7.3h4V64H85.1z M44.9,33.9h-7.1
		l-0.2,2.2c0.2-0.1,0.3-0.2,0.5-0.3c0.7-0.3,1.7-0.4,2.6-0.4c1.3,0,2.5,0.3,3.4,0.9C44.3,35.5,44.6,34.6,44.9,33.9z M72.5,57
		c-0.3,0.4-0.4,0.8-0.4,2.5c0,1.7,0.1,2.1,0.4,2.5c0.2,0.3,0.6,0.5,1.1,0.5c0.5,0,0.9-0.2,1.1-0.5c0.3-0.4,0.4-0.8,0.4-2.5
		c0-1.7-0.1-2.1-0.4-2.5c-0.2-0.3-0.6-0.5-1.1-0.5C73.1,56.5,72.7,56.7,72.5,57z"/>
</g>
<g id="Layer_2">
</g>
</svg>
